<?xml version="1.0" standalone="no"?>
<!DOCTYPE svg PUBLIC "-//W3C//DTD SVG 20010904//EN"
 "http://www.w3.org/TR/2001/REC-SVG-20010904/DTD/svg10.dtd">
<svg version="1.0" xmlns="http://www.w3.org/2000/svg"
 width="300.000000pt" height="60.000000pt" viewBox="0 0 300.000000 60.000000"
 preserveAspectRatio="xMidYMid meet">
<metadata>
Created by potrace 1.10, written by Peter Selinger 2001-2011
</metadata>
<g transform="translate(0.000000,60.000000) scale(0.100000,-0.100000)"
fill="#fbbf24" stroke="none">
<path d="M16 562 c8 -20 51 -127 96 -237 91 -228 129 -318 133 -324 2 -1 9 0
16 4 14 9 627 10 649 1 12 -5 41 59 136 294 66 164 116 296 110 293 -6 -4
-100 -65 -209 -135 -110 -70 -202 -128 -206 -128 -4 0 -17 18 -29 39 -12 22
-46 80 -76 131 l-53 91 -74 -130 c-41 -72 -77 -131 -81 -131 -4 0 -47 26 -95
57 -48 31 -143 92 -211 135 l-122 78 16 -38z m378 -254 c18 -13 15 -20 -54
-141 -63 -110 -90 -142 -90 -106 0 6 -41 109 -90 230 -50 121 -90 222 -90 224
0 4 282 -177 324 -207z m255 106 c34 -59 60 -108 59 -109 -19 -15 -120 -75
-126 -75 -6 0 -102 61 -121 76 -2 2 22 46 53 99 31 53 56 100 56 106 0 28 25
-2 79 -97z m353 -137 c-85 -208 -112 -263 -112 -227 0 5 -31 63 -68 128 l-69
120 171 109 c94 60 172 109 173 108 1 0 -42 -107 -95 -238z m-452 -68 c0 -3
-42 -31 -92 -64 -51 -32 -106 -70 -122 -84 -40 -37 -31 -13 42 110 l63 107 54
-32 c30 -17 54 -33 55 -37z m249 -54 c33 -55 58 -101 57 -102 -4 -4 -231 148
-233 155 -1 4 21 21 50 39 38 24 54 29 60 20 4 -7 34 -57 66 -112z m-84 -50
l108 -70 -233 -3 c-208 -2 -270 2 -233 15 6 2 60 35 120 73 59 37 113 65 119
62 6 -4 59 -38 119 -77z"/>
<path d="M1390 415 c-1 -3 -1 -60 -1 -127 0 -104 2 -123 15 -126 14 -3 16 11
16 94 l0 97 63 -84 c64 -84 94 -116 102 -108 2 3 5 61 6 129 1 108 -1 125 -15
128 -14 3 -16 -10 -17 -95 0 -94 -1 -97 -17 -74 -73 105 -151 190 -152 166z"/>
<path d="M1736 411 c-12 -5 -34 -46 -63 -117 -24 -60 -46 -115 -50 -121 -3 -8
3 -13 16 -13 16 0 26 10 37 35 14 34 16 35 68 35 53 0 55 -1 66 -35 8 -25 18
-35 32 -35 15 0 18 4 14 18 -37 97 -90 228 -95 233 -3 4 -14 4 -25 0z m30 -96
l21 -55 -44 0 c-32 0 -43 4 -39 13 3 6 11 31 18 55 7 23 15 42 18 42 3 0 15
-25 26 -55z"/>
<path d="M1864 411 c-2 -2 -4 -10 -4 -18 0 -9 14 -13 43 -13 l43 0 -1 -107 c0
-101 1 -108 20 -108 19 0 20 6 17 108 l-4 107 41 0 c32 0 41 4 41 18 0 15 -11
17 -96 17 -53 0 -98 -2 -100 -4z"/>
<path d="M2161 407 c-98 -35 -105 -182 -11 -230 82 -42 180 16 180 105 0 51
-16 84 -50 109 -34 25 -78 31 -119 16z m104 -52 c54 -53 19 -155 -51 -155 -49
0 -71 14 -84 55 -13 41 -2 89 27 111 29 22 81 17 108 -11z"/>
<path d="M2373 404 c-3 -7 -3 -52 -2 -99 4 -75 7 -87 30 -111 16 -15 41 -28
66 -31 35 -5 45 -1 74 25 l34 30 0 99 c0 90 -2 98 -19 98 -17 0 -19 -7 -17
-83 3 -102 -12 -132 -63 -132 -51 0 -61 20 -63 123 -1 75 -5 91 -18 93 -9 1
-19 -4 -22 -12z"/>
<path d="M2869 391 c-16 -16 -29 -36 -29 -44 0 -27 38 -63 80 -76 36 -11 41
-15 38 -38 -4 -35 -36 -45 -77 -25 -27 13 -34 13 -41 2 -12 -20 -4 -28 40 -41
52 -16 95 1 109 43 15 44 -4 78 -54 95 -50 17 -59 26 -50 53 6 18 13 21 38 18
18 -3 38 -7 46 -9 8 -2 16 3 18 12 3 11 -6 20 -28 28 -47 16 -57 14 -90 -18z"/>
<path d="M2630 284 c0 -124 0 -125 22 -122 20 3 22 8 19 56 -2 38 1 52 11 52
20 0 32 -11 67 -62 20 -30 39 -48 51 -48 26 0 26 2 -16 60 l-36 50 26 21 c32
25 35 70 6 99 -16 16 -33 20 -85 20 l-65 0 0 -126z m118 84 c21 -21 14 -58
-14 -68 -53 -20 -64 -14 -64 35 0 44 1 45 33 45 18 0 38 -5 45 -12z"/>
</g>
</svg>
