<?xml version="1.0" standalone="no"?>
<!DOCTYPE svg PUBLIC "-//W3C//DTD SVG 20010904//EN"
 "http://www.w3.org/TR/2001/REC-SVG-20010904/DTD/svg10.dtd">
<svg version="1.0" xmlns="http://www.w3.org/2000/svg"
 width="300.000000pt" height="156.000000pt" viewBox="0 0 300.000000 156.000000"
 preserveAspectRatio="xMidYMid meet">
<metadata>
Created by potrace 1.10, written by Peter Selinger 2001-2011
</metadata>
<g transform="translate(0.000000,156.000000) scale(0.100000,-0.100000)"
fill="#fbbf24" stroke="none">
<path d="M16 1522 c82 -195 597 -1480 597 -1489 0 -10 185 -13 889 -13 573 0
887 3 883 10 -5 8 87 241 491 1236 63 155 114 284 114 288 0 4 -12 -2 -27 -14
-16 -11 -262 -170 -548 -354 -399 -257 -522 -332 -530 -322 -5 7 -93 160 -195
339 -102 179 -188 326 -191 326 -4 1 -93 -151 -199 -336 -106 -186 -193 -339
-195 -341 -1 -1 -181 113 -401 254 -219 141 -468 301 -551 355 l-153 98 16
-37z m123 -86 c31 -19 70 -46 86 -60 17 -14 33 -26 37 -26 7 0 63 -35 328
-208 47 -30 87 -59 88 -64 2 -4 7 -8 12 -8 11 0 114 -63 118 -72 2 -5 8 -8 13
-8 6 0 57 -31 114 -69 57 -38 121 -75 141 -83 35 -13 37 -12 64 20 15 18 33
45 41 60 7 15 30 56 51 91 21 34 38 65 38 68 0 3 8 17 18 31 11 15 35 57 55
94 74 136 144 252 153 255 9 3 44 -54 118 -192 11 -22 23 -42 26 -45 3 -3 11
-16 18 -29 8 -13 22 -39 33 -57 10 -19 29 -51 40 -71 87 -154 132 -223 150
-228 18 -6 76 10 89 24 3 3 15 12 28 19 12 6 32 18 44 25 13 6 27 17 33 23 5
5 48 34 95 64 47 29 123 78 170 108 168 110 190 122 190 113 0 -5 -30 -28 -67
-51 -38 -24 -97 -62 -133 -85 -36 -23 -100 -65 -144 -94 -43 -28 -85 -51 -92
-51 -7 0 -14 -4 -16 -9 -1 -5 -38 -32 -80 -60 -100 -65 -103 -77 -47 -178 23
-43 53 -98 67 -123 13 -25 46 -81 72 -125 26 -44 59 -100 72 -125 117 -211
144 -239 187 -198 12 10 21 23 21 28 0 6 9 29 19 53 11 23 52 123 92 222 39
99 97 243 129 320 31 77 59 149 63 159 4 10 10 16 14 13 5 -6 -32 -111 -47
-132 -4 -5 -19 -41 -33 -80 -14 -38 -36 -95 -49 -125 -20 -44 -101 -246 -162
-404 -6 -16 -20 -48 -31 -70 l-20 -41 -846 -3 c-669 -2 -849 1 -856 10 -6 7
-58 135 -118 283 -59 149 -115 288 -125 310 -10 22 -21 51 -25 65 -7 22 -65
164 -100 245 -7 17 -30 73 -50 125 -20 52 -43 109 -51 125 -50 109 -106 255
-97 255 3 0 31 -15 62 -34z m2733 -92 c-21 -49 -63 -150 -92 -224 -58 -145
-89 -212 -90 -194 0 10 37 104 70 179 28 64 80 205 80 218 0 9 -10 23 -22 31
-20 14 -25 14 -52 -2 -17 -10 -42 -25 -56 -33 -14 -8 -27 -17 -30 -20 -3 -3
-19 -13 -37 -22 -17 -9 -37 -22 -45 -29 -22 -20 -58 -39 -58 -30 0 9 5 12 113
82 43 27 82 50 86 50 5 0 11 3 13 8 4 9 119 88 138 94 26 9 22 -17 -18 -108z
m-72 -50 c-62 -144 -470 -1162 -470 -1172 0 -18 -20 -14 -27 6 -7 17 -333 587
-360 628 -13 21 1 31 404 289 230 148 429 277 442 287 13 10 26 17 28 15 2 -2
-6 -26 -17 -53z"/>
<path d="M1462 1362 c-15 -16 -45 -62 -68 -103 -90 -163 -108 -194 -113 -199
-7 -6 -9 -10 -81 -144 l-53 -99 18 -33 c10 -19 24 -34 32 -34 7 0 13 -3 13 -8
0 -4 15 -14 33 -22 17 -7 41 -22 51 -32 11 -10 24 -18 29 -18 6 0 24 -10 41
-23 92 -68 150 -85 186 -52 9 8 20 15 24 15 4 0 27 14 51 30 24 16 48 30 54
30 6 0 11 4 11 9 0 5 15 16 33 25 56 29 102 56 94 56 -5 0 -1 7 7 16 25 24 19
64 -19 127 -19 32 -35 62 -35 68 0 5 -3 9 -7 9 -5 0 -13 10 -18 23 -17 35 -80
152 -85 157 -8 8 -75 121 -94 158 -20 38 -51 72 -67 72 -6 0 -23 -13 -37 -28z
m48 -2 c0 -6 70 -133 156 -282 85 -149 152 -274 147 -277 -17 -15 -310 -201
-316 -201 -4 0 -286 178 -325 205 -1 1 19 37 45 81 27 43 100 170 163 282 105
184 130 221 130 192z"/>
<path d="M190 1351 c0 -5 30 -29 68 -54 180 -118 775 -499 788 -504 8 -3 14
-8 14 -12 0 -3 -83 -151 -184 -329 -102 -177 -186 -328 -189 -335 -2 -6 -7
-10 -10 -7 -2 3 -108 261 -235 575 -276 683 -259 642 -273 651 -21 13 -1 -53
67 -226 36 -91 72 -180 80 -197 8 -18 20 -48 28 -65 8 -18 40 -98 71 -178 31
-80 63 -158 70 -175 7 -16 40 -97 73 -180 80 -199 81 -201 107 -213 18 -9 26
-7 39 7 16 18 102 154 142 226 12 22 40 72 62 112 22 40 49 85 61 102 12 16
21 31 21 33 0 3 22 44 49 92 28 51 47 95 44 106 -4 17 -56 70 -68 70 -2 0 -30
17 -61 38 -31 20 -64 42 -73 47 -9 6 -54 34 -101 63 -47 29 -94 59 -104 65
-11 7 -28 19 -38 28 -10 9 -31 22 -46 30 -15 7 -83 50 -152 95 -214 138 -250
158 -250 135z"/>
<path d="M1117 749 c-20 -12 -48 -55 -108 -165 -23 -43 -45 -81 -48 -84 -3 -3
-13 -18 -22 -35 -29 -54 -76 -139 -112 -202 -44 -77 -54 -105 -34 -98 15 6 64
88 227 378 58 102 108 186 112 187 4 0 67 -38 140 -85 73 -47 138 -87 143 -89
6 -2 8 -5 5 -8 -3 -3 -137 -89 -298 -192 -161 -103 -297 -196 -303 -207 -5
-10 -7 -19 -5 -19 3 0 51 27 106 60 55 33 105 60 110 60 6 0 10 5 10 10 0 6 6
10 14 10 8 0 16 4 18 8 3 9 93 72 103 72 3 0 11 5 18 10 7 6 60 42 119 81 116
75 138 99 116 127 -25 32 -34 39 -103 82 -205 126 -181 115 -208 99z"/>
<path d="M1802 732 c-60 -31 -187 -115 -216 -143 -39 -38 -30 -65 36 -109 29
-19 55 -37 58 -40 7 -8 206 -133 230 -145 11 -5 20 -13 20 -17 0 -5 6 -8 13
-8 8 0 22 -9 32 -20 10 -11 22 -20 28 -20 5 0 21 -8 35 -18 15 -10 53 -33 85
-51 43 -24 57 -29 57 -18 0 13 -352 248 -557 373 l-53 31 146 93 c79 51 147
91 149 88 2 -2 72 -123 156 -268 147 -257 174 -300 190 -300 11 0 -1 41 -21
70 -33 50 -80 140 -73 140 5 0 3 4 -3 8 -13 8 -83 125 -144 237 -24 44 -47 82
-52 83 -4 2 -8 10 -8 17 0 17 -31 35 -57 35 -10 -1 -33 -9 -51 -18z"/>
<path d="M1420 487 c-59 -34 -207 -130 -227 -147 -7 -5 -15 -10 -18 -10 -3 0
-45 -26 -93 -59 -48 -32 -101 -65 -118 -74 -35 -18 -98 -77 -90 -84 7 -7 34 9
338 204 l286 183 295 -190 c163 -104 300 -190 306 -190 6 0 11 -4 11 -10 0 -7
-210 -10 -610 -10 -351 0 -610 -4 -610 -9 0 -5 7 -12 16 -15 9 -3 278 -6 598
-6 576 0 583 0 602 21 25 28 14 43 -82 107 -43 29 -83 56 -89 60 -27 21 -104
72 -109 72 -7 0 -155 94 -173 110 -33 28 -134 80 -155 80 -13 -1 -48 -15 -78
-33z"/>
</g>
</svg>
