<?xml version="1.0" encoding="UTF-8"?>
<svg version="1.1" xmlns="http://www.w3.org/2000/svg" width="297" height="297">
<path d="M0 0 C1.08995773 -0.00855011 1.08995773 -0.00855011 2.20193481 -0.01727295 C3.7364967 -0.02667019 5.27107829 -0.03323579 6.80566406 -0.03710938 C9.09218309 -0.0467045 11.37775794 -0.07773065 13.6640625 -0.109375 C52.79386353 -0.39105909 88.8637048 16.83663168 116.4453125 43.953125 C140.83146063 68.55160481 158.24046679 103.87009511 158.4609375 138.9453125 C158.46663757 139.67195099 158.47233765 140.39858948 158.47821045 141.14724731 C158.48760769 142.6818092 158.49417329 144.21639079 158.49804688 145.75097656 C158.507642 148.03749559 158.53866815 150.32307044 158.5703125 152.609375 C158.85199659 191.73917603 141.62430582 227.8090173 114.5078125 255.390625 C89.90933269 279.77677313 54.59084239 297.18577929 19.515625 297.40625 C18.78898651 297.41195007 18.06234802 297.41765015 17.31369019 297.42352295 C15.7791283 297.43292019 14.24454671 297.43948579 12.70996094 297.44335938 C10.42344191 297.4529545 8.13786706 297.48398065 5.8515625 297.515625 C-33.27823853 297.79730909 -69.3480798 280.56961832 -96.9296875 253.453125 C-121.31583563 228.85464519 -138.72484179 193.53615489 -138.9453125 158.4609375 C-138.95101257 157.73429901 -138.95671265 157.00766052 -138.96258545 156.25900269 C-138.97198269 154.7244408 -138.97854829 153.18985921 -138.98242188 151.65527344 C-138.992017 149.36875441 -139.02304315 147.08317956 -139.0546875 144.796875 C-139.33637159 105.66707397 -122.10868082 69.5972327 -94.9921875 42.015625 C-70.39370769 17.62947687 -35.07521739 0.22047071 0 0 Z " fill="#fbbf24" transform="translate(138.7421875,-0.203125)"/>
<path d="M0 0 C3.51931265 1.30244116 6.51589746 2.84190881 9.640625 4.9140625 C10.53313965 5.50179443 11.4256543 6.08952637 12.34521484 6.69506836 C13.30379395 7.3319458 14.26237305 7.96882324 15.25 8.625 C17.33009982 9.994446 19.41085129 11.3629026 21.4921875 12.73046875 C22.56694336 13.4373584 23.64169922 14.14424805 24.74902344 14.87255859 C29.93355919 18.26532253 35.15259455 21.60342661 40.375 24.9375 C41.3956958 25.58936279 42.4163916 26.24122559 43.46801758 26.9128418 C45.55911412 28.24808878 47.65034258 29.58312919 49.74169922 30.91796875 C53.18568199 33.11864948 56.62645671 35.32427346 60.06640625 37.53125 C61.79686258 38.64093042 63.52736377 39.75054085 65.25787354 40.86013794 C66.9078095 41.91845564 68.55718149 42.97765244 70.20654297 44.03686523 C71.19928223 44.67309814 72.19202148 45.30933105 73.21484375 45.96484375 C74.09261475 46.5280835 74.97038574 47.09132324 75.87475586 47.67163086 C77.94241634 49.01072481 77.94241634 49.01072481 80 50 C80.40617554 48.67488403 80.40617554 48.67488403 80.82055664 47.32299805 C81.92327311 44.21617257 83.1940438 41.65933293 84.87109375 38.83203125 C85.44069824 37.86458984 86.01030273 36.89714844 86.59716797 35.90039062 C87.20447754 34.88138672 87.81178711 33.86238281 88.4375 32.8125 C89.69953722 30.67336494 90.96125144 28.53403929 92.22265625 26.39453125 C92.85445801 25.3267041 93.48625977 24.25887695 94.13720703 23.15869141 C96.91102157 18.45520353 99.64480598 13.72889865 102.375 9 C103.27860693 7.4374775 104.18224864 5.87497512 105.0859375 4.3125 C106.03339844 2.6728125 106.03339844 2.6728125 107 1 C111.17818236 5.73191737 114.02029165 11.13421797 117.0625 16.625 C118.21253395 18.68415688 119.36359364 20.74274119 120.515625 22.80078125 C121.09376953 23.83412598 121.67191406 24.8674707 122.26757812 25.93212891 C125.3587714 31.40618961 128.54290715 36.82697028 131.74829102 42.23486328 C132.17811279 42.96817871 132.60793457 43.70149414 133.05078125 44.45703125 C133.42887939 45.09616455 133.80697754 45.73529785 134.1965332 46.39379883 C135 48 135 48 135 50 C144.45326727 44.28381382 153.8562189 38.50963508 163.11132812 32.47705078 C170.59309278 27.60096895 178.12830328 22.80955575 185.65869141 18.0090332 C193.07830125 13.26528296 200.4298298 8.43069003 207.69506836 3.45336914 C212.78753003 0 212.78753003 0 215 0 C212.77542539 7.05961942 210.0711818 13.84418879 207.21716309 20.67129517 C199.5671424 38.98604792 192.16526649 57.4018973 184.75 75.8125 C184.17943294 77.22879428 183.608856 78.64508458 183.03826904 80.06137085 C177.00687253 95.02576138 177.00687253 95.02576138 171 110 C129.09 110 87.18 110 44 110 C20.66666667 52.22222222 20.66666667 52.22222222 9.56640625 24.7265625 C6.82803402 17.97156738 3.9874831 11.27219168 1.04663086 4.60302734 C0 2 0 2 0 0 Z " fill="#F8FCFA" transform="translate(41,91)"/>
<path d="M0 0 C0.66 0.33 1.32 0.66 2 1 C-9.43581542 29.76487269 -20.96622815 58.47940616 -33 87 C-35.91608428 84.42691916 -37.57891474 81.48285727 -39.4765625 78.109375 C-39.80361679 77.53201096 -40.13067108 76.95464691 -40.46763611 76.35978699 C-41.52458766 74.49235726 -42.57495162 72.62131862 -43.625 70.75 C-45.06112799 68.20291043 -46.50049319 65.65766656 -47.94140625 63.11328125 C-48.4688166 62.18093407 -48.4688166 62.18093407 -49.00688171 61.22975159 C-52.40457094 55.24481785 -55.99890587 49.3962159 -59.69140625 43.58984375 C-60.12324219 42.73519531 -60.55507812 41.88054687 -61 41 C-59.88375742 37.65127226 -59.55028196 37.43825901 -56.66796875 35.7578125 C-55.60980957 35.12879028 -55.60980957 35.12879028 -54.53027344 34.48706055 C-53.7571582 34.03758057 -52.98404297 33.58810059 -52.1875 33.125 C-50.52844306 32.13663625 -48.8709445 31.14565293 -47.21484375 30.15234375 C-45.92102783 29.37673096 -45.92102783 29.37673096 -44.60107422 28.58544922 C-40.42633516 26.04079412 -36.33851985 23.36774737 -32.25 20.6875 C-30.59128725 19.60525198 -28.9324303 18.52322493 -27.2734375 17.44140625 C-24.51672426 15.6425696 -21.760283 13.8433281 -19.00488281 12.04248047 C-15.96684036 10.06175358 -12.92173155 8.09232805 -9.875 6.125 C-8.44269043 5.18660278 -8.44269043 5.18660278 -6.98144531 4.22924805 C-6.09811523 3.66117432 -5.21478516 3.09310059 -4.3046875 2.5078125 C-3.52077637 1.99879395 -2.73686523 1.48977539 -1.92919922 0.96533203 C-0.97424561 0.48749268 -0.97424561 0.48749268 0 0 Z " fill="#fbbf24" transform="translate(241,107)"/>
<path d="M0 0 C4.26481931 1.52314976 7.95119602 3.70205589 11.75 6.125 C12.76525757 6.76610718 12.76525757 6.76610718 13.80102539 7.42016602 C16.20430049 8.9411559 18.60247527 10.46996215 21 12 C21.96212402 12.61311035 22.92424805 13.2262207 23.91552734 13.85791016 C36.97753573 22.18620221 50.00704228 30.56440709 63 39 C61.69167842 42.439595 60.19263619 45.61369994 58.3828125 48.81640625 C57.60393677 50.19687134 57.60393677 50.19687134 56.80932617 51.60522461 C56.25349854 52.58112549 55.6976709 53.55702637 55.125 54.5625 C54.55434814 55.56869385 53.98369629 56.5748877 53.39575195 57.61157227 C47.75920543 67.50518859 41.91970712 77.2737291 36 87 C33.4618893 83.90913828 31.97532862 80.87757281 30.49145508 77.171875 C30.01698441 75.99544434 29.54251373 74.81901367 29.05366516 73.60693359 C28.54216424 72.32133797 28.03078975 71.03569205 27.51953125 69.75 C26.98299606 68.41336608 26.44593286 67.076944 25.90837097 65.74072266 C24.49069977 62.21267798 23.08023806 58.68179417 21.67126465 55.15026855 C20.26627524 51.63230289 18.85455495 48.11704209 17.44335938 44.6015625 C15.01990835 38.56195483 12.60298502 32.51976541 10.18947029 26.47618103 C8.60368919 22.50662109 7.011842 18.53955351 5.41552734 14.57421875 C5.03571213 13.62949707 4.65589691 12.68477539 4.26457214 11.71142578 C3.57506927 9.9970257 2.88432446 8.28312435 2.1920929 6.56982422 C0 1.11209641 0 1.11209641 0 0 Z " fill="#fbbf24" transform="translate(54,107)"/>
<path d="M0 0 C2.81315349 3.36798898 5.11542396 6.73460056 7.2421875 10.5703125 C7.83386719 11.6325 8.42554688 12.6946875 9.03515625 13.7890625 C9.64230469 14.88992187 10.24945313 15.99078125 10.875 17.125 C11.47441406 18.20265625 12.07382813 19.2803125 12.69140625 20.390625 C16.49631478 27.24111107 20.25738728 34.11531334 24 41 C20.45313809 43.37841036 16.88528889 45.72325404 13.3125 48.0625 C12.30509766 48.73861328 11.29769531 49.41472656 10.25976562 50.11132812 C9.28330078 50.74619141 8.30683594 51.38105469 7.30078125 52.03515625 C6.40528564 52.6269165 5.50979004 53.21867676 4.5871582 53.82836914 C1.43809634 55.25446595 0.23007999 55.13537567 -3 54 C-5.40356445 52.69311523 -5.40356445 52.69311523 -7.86328125 51.05859375 C-8.74951172 50.47529297 -9.63574219 49.89199219 -10.54882812 49.29101562 C-11.46083984 48.67935547 -12.37285156 48.06769531 -13.3125 47.4375 C-14.24384766 46.82197266 -15.17519531 46.20644531 -16.13476562 45.57226562 C-18.42798356 44.05521376 -20.71606762 42.53098066 -23 41 C-18.7866315 33.24581948 -14.53214467 25.5148854 -10.24853516 17.79931641 C-9.23609841 15.97494994 -8.22547865 14.14958386 -7.21484375 12.32421875 C-6.56521514 11.15358424 -5.91547963 9.98300905 -5.265625 8.8125 C-4.68586914 7.76707031 -4.10611328 6.72164063 -3.50878906 5.64453125 C-2.41093955 3.72027463 -1.22888781 1.84333172 0 0 Z " fill="#fbbf24" transform="translate(148,104)"/>
<path d="M0 0 C2.11965839 0.78544679 3.89993612 1.71906626 5.82543945 2.90258789 C6.54812012 3.3445752 7.27080078 3.7865625 8.01538086 4.24194336 C8.78156738 4.71905762 9.54775391 5.19617188 10.3371582 5.68774414 C11.1317041 6.17774902 11.92625 6.66775391 12.74487305 7.17260742 C19.18681718 11.17039082 25.50568703 15.3370741 31.78637695 19.58227539 C34.48101288 21.38628376 37.19591685 23.12199417 39.9621582 24.81274414 C40.9727832 25.45211914 41.9834082 26.09149414 43.0246582 26.75024414 C43.0246582 27.08024414 43.0246582 27.41024414 43.0246582 27.75024414 C14.3146582 27.75024414 -14.3953418 27.75024414 -43.9753418 27.75024414 C-40.86338583 25.26067937 -38.0139365 23.03337822 -34.7097168 20.90258789 C-33.90985352 20.3845459 -33.10999023 19.86650391 -32.28588867 19.33276367 C-31.4409082 18.78990723 -30.59592773 18.24705078 -29.7253418 17.68774414 C-27.93865412 16.53836099 -26.15220008 15.38861458 -24.3659668 14.23852539 C-23.46813477 13.66054199 -22.57030273 13.08255859 -21.64526367 12.48706055 C-19.08642185 10.82250306 -16.55130978 9.12754145 -14.0222168 7.41821289 C-13.25425781 6.90460205 -12.48629883 6.39099121 -11.69506836 5.86181641 C-10.24250229 4.88901892 -8.79621684 3.90676064 -7.35717773 2.9140625 C-2.4951424 -0.31547778 -2.4951424 -0.31547778 0 0 Z " fill="#fbbf24" transform="translate(148.975341796875,167.249755859375)"/>
<path d="M0 0 C3.31659076 3.02342905 5.35801 6.08119181 7.49609375 10.015625 C7.96922752 10.87761505 7.96922752 10.87761505 8.45191956 11.75701904 C9.45366604 13.58452262 10.44604011 15.41689867 11.4375 17.25 C12.74533917 19.65288609 14.05765753 22.0532949 15.37109375 24.453125 C15.98839355 25.58427734 16.60569336 26.71542969 17.24169922 27.88085938 C18.7565129 30.56806565 20.34798648 33.15379201 22.03515625 35.734375 C22.68355469 36.81203125 23.33195312 37.8896875 24 39 C23.505 39.99 23.505 39.99 23 41 C13.53212181 35.0471049 4.07585611 29.07777487 -5.3125 23 C-5.99820068 22.55615967 -6.68390137 22.11231934 -7.39038086 21.6550293 C-8.66783828 20.82620746 -9.94359094 19.99474967 -11.21728516 19.16015625 C-12.40745787 18.38561493 -13.60518183 17.62255722 -14.81005859 16.87109375 C-16.2401496 15.96479813 -17.62560047 14.98871532 -19 14 C-19 13.34 -19 12.68 -19 12 C-17.25585938 10.67138672 -17.25585938 10.67138672 -14.84375 9.1796875 C-13.98652344 8.64472656 -13.12929687 8.10976562 -12.24609375 7.55859375 C-11.33988281 7.00300781 -10.43367187 6.44742188 -9.5 5.875 C-8.59378906 5.31167969 -7.68757812 4.74835938 -6.75390625 4.16796875 C-4.50648709 2.77220317 -2.25513194 1.38325702 0 0 Z " fill="#fbbf24" transform="translate(174,150)"/>
<path d="M0 0 C6.9309521 3.65332428 13.56852529 7.52178798 20 12 C18.64511423 16.06465732 16.01542857 17.10463444 12.5 19.1875 C11.06140355 20.06200091 9.62398892 20.93844773 8.1875 21.81640625 C7.37925781 22.30898926 6.57101563 22.80157227 5.73828125 23.30908203 C0.2818553 26.67848343 -5.10381163 30.16028404 -10.5 33.625 C-11.63990594 34.35581899 -12.77987859 35.08653395 -13.91992188 35.81713867 C-16.61381731 37.54392565 -19.30716468 39.27156049 -22 41 C-22.33 40.34 -22.66 39.68 -23 39 C-21.86352539 36.5925293 -21.86352539 36.5925293 -20.09765625 33.57421875 C-19.45771729 32.47255371 -18.81777832 31.37088867 -18.15844727 30.23583984 C-17.46008191 29.05289235 -16.76142807 27.87011511 -16.0625 26.6875 C-15.36656841 25.49722178 -14.67117355 24.30662957 -13.97631836 23.11572266 C-9.42970505 15.3422671 -4.82016755 7.60754878 0 0 Z " fill="#fbbf24" transform="translate(122,150)"/>
</svg>
