 <svg  version="1.0" xmlns="http://www.w3.org/2000/svg"  width="128.000000pt" height="128.000000pt" viewBox="0 0 128.000000 128.000000"  preserveAspectRatio="xMidYMid meet">  <g transform="translate(0.000000,128.000000) scale(0.100000,-0.100000)" fill="#fbbf24" stroke="none"> <path d="M132 646 l132 -326 375 0 376 0 131 325 c72 179 129 325 126 325 -3 0 -13 -6 -21 -14 -22 -19 -443 -287 -446 -284 -18 26 -155 272 -155 279 0 27 -22 -5 -94 -134 -44 -78 -81 -143 -82 -145 -1 -3 -305 190 -446 282 -25 16 -16 -11 104 -308z m-45 237 c6 -10 90 -67 187 -128 96 -60 174 -115 173 -121 -3 -15 -151 -273 -157 -274 -3 0 -45 100 -94 223 -49 122 -100 243 -113 270 -22 45 -20 66 4 30z m1109 -25 c-11 -24 -61 -145 -111 -270 -49 -125 -92 -227 -96 -228 -3 0 -25 35 -49 78 -24 42 -60 105 -81 139 l-37 62 184 117 c101 64 189 123 195 130 19 23 17 16 -5 -28z m-546 23 c0 -6 29 -59 64 -120 l64 -110 -69 -45 -69 -46 -70 46 -69 46 30 52 c16 28 46 81 67 118 34 62 52 82 52 59z m-83 -313 c18 -11 33 -23 33 -26 0 -4 -50 -38 -110 -76 -60 -38 -119 -78 -131 -89 -21 -20 -21 -21 -3 -28 15 -6 12 -8 -14 -8 l-32 -1 31 43 c17 23 56 86 86 140 l55 98 26 -17 c14 -9 40 -25 59 -36z m278 -35 c27 -48 64 -109 82 -136 36 -54 38 -57 23 -57 -5 0 -10 6 -10 13 0 8 -61 54 -135 102 l-135 89 45 26 c25 15 51 32 57 38 7 7 15 12 18 12 4 0 28 -39 55 -87z m-91 -85 c62 -40 122 -78 132 -85 15 -9 -37 -12 -245 -12 -145 -1 -262 1 -259 4 5 5 251 163 255 164 2 1 54 -32 117 -71z"/> </g> </svg> 